<?xml version="1.0" standalone="no"?>
<!DOCTYPE svg PUBLIC "-//W3C//DTD SVG 20010904//EN"
 "http://www.w3.org/TR/2001/REC-SVG-20010904/DTD/svg10.dtd">
<svg version="1.0" xmlns="http://www.w3.org/2000/svg"
 width="500.000000pt" height="500.000000pt" viewBox="0 0 500.000000 500.000000"
 preserveAspectRatio="xMidYMid meet">

<g transform="translate(0.000000,500.000000) scale(0.100000,-0.100000)"
fill="#000000" stroke="none">
<path d="M2530 3918 l0 -63 105 -64 c58 -35 105 -65 105 -67 0 -2 -45 18 -100
46 -55 27 -102 50 -105 50 -3 0 -5 -201 -5 -446 0 -294 3 -443 10 -439 6 4 10
87 10 216 l0 210 30 6 30 6 0 173 c0 96 2 174 4 174 3 0 21 -9 40 -21 l36 -21
0 -143 c0 -138 1 -143 20 -138 19 5 20 14 20 129 0 68 2 124 5 124 4 0 19 -7
35 -15 l30 -16 0 -100 c0 -88 2 -100 16 -95 9 3 20 6 25 6 5 0 9 51 9 114 l0
115 -30 18 c-28 16 -30 21 -30 83 l-1 65 -123 78 c-68 42 -126 77 -130 77 -3
0 -6 -28 -6 -62z"/>
<path d="M2637 3673 c-4 -3 -7 -71 -7 -150 0 -120 2 -143 15 -143 13 0 15 23
15 150 0 137 -4 163 -23 143z"/>
<path d="M2750 3515 c0 -87 3 -105 15 -105 12 0 15 18 15 99 0 79 -3 100 -15
105 -13 5 -15 -10 -15 -99z"/>
<path d="M2900 3411 l-315 -76 -3 -198 -2 -197 24 -10 c17 -6 104 4 310 39
l286 48 0 -28 c0 -30 9 -28 -320 -82 l-135 -23 77 -27 76 -28 119 15 c65 9
133 18 151 21 30 6 32 4 32 -23 0 -29 -2 -30 -62 -36 -112 -13 -112 -13 -68
-52 31 -28 45 -34 84 -34 42 0 46 -2 46 -25 0 -18 -5 -25 -20 -25 -11 0 -20
-3 -20 -7 0 -3 25 -32 55 -64 l55 -58 0 365 c0 219 4 363 9 360 6 -4 7 -153 4
-371 -7 -439 -18 -405 124 -405 l93 0 -2 421 -3 421 -128 79 c-71 43 -134 79
-140 78 -7 -1 -154 -35 -327 -78z m292 -10 c-6 -58 -32 -64 -32 -7 0 27 5 46
13 49 20 7 23 1 19 -42z m-64 -13 c-2 -31 -8 -44 -20 -46 -15 -3 -18 4 -18 42
0 40 3 46 21 46 18 0 20 -5 17 -42z m-80 -59 c-23 -15 -28 -10 -28 35 0 34 4
45 18 48 13 3 18 -5 20 -36 2 -24 -2 -42 -10 -47z m-58 26 c0 -38 -3 -45 -20
-45 -17 0 -20 7 -20 39 0 35 8 48 33 50 4 1 7 -19 7 -44z m-72 -17 c-4 -59
-28 -63 -28 -4 0 35 4 46 16 46 12 0 14 -9 12 -42z m-60 -10 c-2 -31 -8 -44
-20 -46 -15 -3 -18 4 -18 36 0 42 5 52 27 52 10 0 13 -11 11 -42z m-68 -17 c0
-26 -5 -41 -16 -45 -24 -9 -24 -9 -24 39 0 38 3 45 20 45 17 0 20 -7 20 -39z
m-70 -16 c0 -38 -3 -45 -20 -45 -17 0 -20 7 -20 39 0 29 5 41 18 44 9 3 18 5
20 6 1 0 2 -19 2 -44z m-70 -20 c0 -39 -3 -45 -21 -45 -15 0 -19 4 -15 16 3 9
6 29 6 45 0 19 5 29 15 29 11 0 15 -12 15 -45z m548 -12 l-3 -28 -275 -57
c-151 -32 -281 -57 -288 -58 -9 0 -12 10 -10 27 3 27 4 27 278 84 151 31 281
58 288 58 9 1 12 -8 10 -26z m149 -580 c-1 -103 -2 -21 -2 182 0 204 1 288 2
188 2 -100 2 -266 0 -370z m81 220 c-2 -284 -2 -285 -9 -113 -10 271 -10 400
1 400 6 0 9 -101 8 -287z m-228 223 c0 -15 -7 -27 -17 -30 -10 -3 -133 -26
-273 -51 -140 -25 -263 -48 -272 -51 -14 -4 -18 1 -18 23 l0 28 273 51 c149
28 280 52 290 53 12 1 17 -6 17 -23z"/>
<path d="M1762 2918 l3 -292 105 -22 c58 -13 119 -23 137 -24 17 0 34 -4 37
-8 3 -5 24 -7 47 -6 29 1 49 9 67 28 22 21 23 26 9 26 -11 0 -17 8 -17 25 0
29 33 35 48 9 7 -13 11 -13 31 3 21 18 22 23 19 198 l-3 179 -227 55 c-145 35
-228 59 -228 67 0 8 72 -6 228 -47 125 -32 230 -59 235 -59 4 0 7 -82 7 -181
0 -160 2 -180 15 -169 12 10 15 46 15 201 0 170 -2 188 -17 193 -39 12 -487
116 -500 116 -11 0 -13 -51 -11 -292z m86 137 c27 -8 31 -45 5 -45 -43 0 -63
12 -63 37 0 18 4 23 18 19 9 -2 27 -7 40 -11z m96 -21 c23 -9 20 -44 -3 -44
-33 0 -51 11 -51 31 0 19 23 25 54 13z m94 -41 c3 -19 -1 -23 -22 -23 -21 0
-26 5 -26 26 0 21 4 25 23 22 14 -2 23 -11 25 -25z m82 -19 c0 -21 -4 -25 -22
-22 -15 2 -24 11 -26 26 -3 18 1 22 22 22 21 0 26 -5 26 -26z m75 -19 c0 -30
-39 -27 -43 3 -3 20 0 23 20 20 15 -2 23 -10 23 -23z m-352 -19 c36 -8 39 -46
3 -46 -13 0 -31 3 -40 6 -19 7 -22 55 -3 50 6 -3 24 -7 40 -10z m115 -43 c3
-17 -2 -23 -16 -23 -34 0 -52 11 -52 32 0 16 6 19 33 16 24 -2 33 -8 35 -25z
m73 7 c5 0 9 -12 9 -26 0 -20 -4 -25 -16 -20 -9 3 -20 6 -25 6 -5 0 -9 12 -9
26 0 20 4 25 16 20 9 -3 20 -6 25 -6z m87 -37 c3 -19 -1 -23 -22 -23 -21 0
-26 5 -26 26 0 21 4 25 23 22 14 -2 23 -11 25 -25z m73 7 c5 0 9 -9 9 -20 0
-15 -7 -20 -25 -20 -20 0 -25 5 -25 26 0 20 4 25 16 20 9 -3 20 -6 25 -6z
m-348 -44 c36 -8 39 -46 3 -46 -13 0 -31 3 -40 6 -19 7 -22 55 -3 50 6 -3 24
-7 40 -10z m103 -16 c8 0 14 -10 14 -26 0 -24 -3 -25 -27 -19 -36 8 -47 20
-39 40 4 11 12 15 22 11 9 -3 22 -6 30 -6z m92 -37 c3 -19 -1 -23 -22 -23 -21
0 -26 5 -26 26 0 21 4 25 23 22 14 -2 23 -11 25 -25z m73 7 c5 0 9 -11 9 -24
0 -19 -4 -22 -25 -18 -19 3 -25 11 -25 29 0 19 4 24 16 19 9 -3 20 -6 25 -6z
m86 -27 c3 -8 1 -19 -4 -24 -16 -16 -43 1 -43 26 0 19 4 22 21 18 11 -3 23
-12 26 -20z m-327 -69 c0 -25 -14 -29 -57 -18 -15 4 -23 14 -23 28 0 19 5 21
40 18 34 -4 40 -7 40 -28z m88 -12 c3 -21 0 -23 -30 -20 -26 2 -34 8 -36 26
-3 21 0 23 30 20 26 -2 34 -8 36 -26z m80 -9 c3 -19 -1 -23 -22 -23 -21 0 -26
5 -26 26 0 21 4 25 23 22 14 -2 23 -11 25 -25z m80 -10 c3 -19 -1 -23 -22 -23
-21 0 -26 5 -26 26 0 21 4 25 23 22 14 -2 23 -11 25 -25z"/>
<path d="M2340 2725 c-118 -107 -221 -195 -228 -195 -7 0 -124 25 -259 55
-136 30 -255 55 -264 55 -16 0 -490 -448 -497 -470 -2 -6 26 -10 67 -10 l71 0
0 -152 0 -152 -47 -48 -47 -48 1399 0 1400 0 -52 51 -53 50 0 120 0 119 31 0
c29 0 25 6 -93 118 -67 65 -147 140 -175 166 l-53 48 -138 -131 -139 -131
-167 0 -166 0 0 -155 0 -155 -25 0 -25 0 0 290 0 290 28 0 27 0 -3 -120 -3
-120 152 0 151 0 134 126 c74 70 134 130 134 135 0 5 -42 6 -93 2 l-93 -6
-138 151 -137 150 -236 81 c-129 45 -238 81 -241 81 -4 0 -104 -88 -222 -195z
m440 -60 c179 -179 192 -195 165 -195 -25 0 -56 26 -201 171 l-170 170 -178
-159 c-132 -119 -185 -161 -209 -165 -18 -2 -33 -4 -35 -2 -5 4 413 374 423
374 6 1 98 -87 205 -194z m-200 -70 c0 -18 -5 -25 -18 -25 -28 0 -34 11 -15
32 22 25 33 23 33 -7z m44 9 c23 -22 20 -34 -9 -34 -20 0 -25 5 -25 25 0 29
12 32 34 9z m-844 -189 l185 -165 118 0 119 0 -4 100 -3 100 28 0 27 0 0 -150
0 -150 290 0 c251 0 290 -2 290 -15 0 -13 -39 -15 -290 -15 l-290 0 0 -130 0
-130 -25 0 -25 0 -2 178 -3 177 -118 3 -119 3 -161 141 c-89 78 -170 148 -179
156 -16 13 -20 13 -40 -4 -13 -12 -18 -13 -13 -4 5 8 -21 -12 -58 -44 -37 -33
-67 -62 -67 -65 0 -2 12 6 28 20 l27 24 -24 -27 c-13 -15 -27 -25 -32 -23 -10
7 -70 -45 -64 -54 2 -5 -10 -21 -28 -37 -18 -16 -24 -19 -13 -6 11 12 16 22
12 22 -12 0 -137 -112 -131 -118 3 -3 15 3 27 14 l23 18 -21 -23 c-16 -17 -30
-22 -54 -19 -33 3 -29 7 181 195 118 106 216 193 219 193 4 0 89 -74 190 -165z
m800 125 c0 -11 -7 -20 -15 -20 -8 0 -19 9 -25 20 -9 18 -8 20 15 20 18 0 25
-5 25 -20z m58 8 c-2 -6 -14 -18 -26 -26 -21 -14 -22 -13 -22 12 0 21 5 26 26
26 15 0 24 -5 22 -12z m-183 -173 c0 -14 -8 -21 -27 -23 -24 -3 -28 0 -28 23
0 23 4 26 28 23 19 -2 27 -9 27 -23z m80 0 c0 -15 -8 -21 -32 -23 -30 -3 -33
-1 -33 23 0 24 3 26 33 23 24 -2 32 -8 32 -23z m95 0 c0 -21 -5 -25 -29 -25
-17 0 -33 5 -36 10 -13 21 4 40 35 40 25 0 30 -4 30 -25z m80 0 c0 -21 -5 -25
-29 -25 -17 0 -33 5 -36 10 -13 21 4 40 35 40 25 0 30 -4 30 -25z m-252 -62
c3 -20 -1 -23 -27 -23 -27 0 -31 4 -31 26 0 22 4 25 28 22 19 -2 28 -9 30 -25z
m77 2 c0 -15 -8 -21 -32 -23 -30 -3 -33 -1 -33 23 0 24 3 26 33 23 24 -2 32
-8 32 -23z m95 0 c0 -22 -4 -25 -35 -25 -27 0 -35 4 -35 18 0 25 9 32 42 32
23 0 28 -4 28 -25z m80 0 c0 -21 -5 -25 -29 -25 -17 0 -33 5 -36 10 -13 21 4
40 35 40 25 0 30 -4 30 -25z m-778 -289 c-2 -146 -5 -176 -17 -176 -13 0 -15
31 -15 192 0 181 1 190 18 175 15 -14 17 -34 14 -191z m-602 4 c0 -153 -2
-180 -15 -180 -13 0 -15 24 -15 160 0 110 4 166 12 180 7 11 14 20 15 20 2 0
3 -81 3 -180z m768 37 c3 -23 0 -27 -22 -27 -21 0 -26 5 -26 23 0 13 3 27 7
31 15 14 38 0 41 -27z m52 3 c0 -23 -4 -30 -20 -30 -16 0 -20 7 -20 30 0 23 4
30 20 30 16 0 20 -7 20 -30z m1340 -20 c0 -5 -11 -10 -25 -10 -14 0 -25 5 -25
10 0 6 11 10 25 10 14 0 25 -4 25 -10z m90 0 c0 -5 -13 -10 -30 -10 -16 0 -30
5 -30 10 0 6 14 10 30 10 17 0 30 -4 30 -10z m-1980 -40 l0 -40 -90 0 -90 0 0
40 0 40 90 0 90 0 0 -40z m190 0 l0 -40 -85 0 -85 0 0 40 0 40 85 0 85 0 0
-40z m1270 10 c0 -28 -3 -30 -35 -30 -32 0 -35 2 -35 30 0 28 3 30 35 30 32 0
35 -2 35 -30z m100 0 c0 -28 -3 -30 -35 -30 -32 0 -35 2 -35 30 0 28 3 30 35
30 32 0 35 -2 35 -30z m-1062 -33 c3 -23 0 -27 -22 -27 -21 0 -26 5 -26 23 0
13 3 27 7 31 15 14 38 0 41 -27z m52 3 c0 -23 -4 -30 -20 -30 -16 0 -20 7 -20
30 0 23 4 30 20 30 16 0 20 -7 20 -30z m250 5 c0 -18 -5 -25 -20 -25 -15 0
-20 7 -20 25 0 18 5 25 20 25 15 0 20 -7 20 -25z m128 -2 c-2 -23 -8 -29 -35
-31 -31 -3 -33 -1 -33 27 0 29 3 31 36 31 33 0 35 -2 32 -27z m82 -3 c0 -27
-3 -30 -30 -30 -27 0 -30 3 -30 30 0 27 3 30 30 30 27 0 30 -3 30 -30z m120 5
c0 -18 -5 -25 -20 -25 -15 0 -20 7 -20 25 0 18 5 25 20 25 15 0 20 -7 20 -25z
m760 -65 c0 -68 -1 -70 -25 -70 -24 0 -25 2 -25 70 0 68 1 70 25 70 24 0 25
-2 25 -70z m90 0 l0 -70 -30 0 -30 0 0 70 0 70 30 0 30 0 0 -70z m-520 20 c0
-28 -3 -30 -35 -30 -32 0 -35 2 -35 30 0 28 3 30 35 30 32 0 35 -2 35 -30z
m100 -10 c0 -28 -3 -30 -35 -30 -32 0 -35 2 -35 30 0 28 3 30 35 30 32 0 35
-2 35 -30z m-1562 -42 l3 -48 -90 0 -91 0 0 50 0 51 88 -3 87 -3 3 -47z m192
2 l0 -50 -85 0 -85 0 0 50 0 50 85 0 85 0 0 -50z m610 20 c0 -23 -4 -30 -20
-30 -16 0 -20 7 -20 30 0 23 4 30 20 30 16 0 20 -7 20 -30z m128 -2 c3 -26 1
-28 -32 -28 -33 0 -36 2 -36 31 0 28 2 30 33 27 27 -2 33 -8 35 -30z m82 2 c0
-27 -3 -30 -30 -30 -27 0 -30 3 -30 30 0 27 3 30 30 30 27 0 30 -3 30 -30z
m120 0 c0 -23 -4 -30 -20 -30 -16 0 -20 7 -20 30 0 23 4 30 20 30 16 0 20 -7
20 -30z"/>
<path d="M1430 1295 l0 -185 50 0 49 0 3 96 3 95 79 -95 c77 -95 79 -96 122
-96 l44 0 0 185 0 185 -50 0 -50 0 0 -95 c0 -52 -3 -95 -7 -94 -5 0 -43 43
-86 95 -74 90 -80 94 -117 94 l-40 0 0 -185z"/>
<path d="M1850 1295 l0 -185 145 0 145 0 0 40 0 40 -95 0 -95 0 0 35 0 35 80
0 80 0 0 35 0 35 -80 0 -80 0 0 35 0 35 90 0 90 0 0 40 0 40 -140 0 -140 0 0
-185z"/>
<path d="M2233 1460 c-47 -28 -67 -63 -60 -107 9 -51 24 -62 119 -93 90 -29
109 -51 64 -72 -25 -11 -56 -7 -142 17 -15 5 -23 0 -32 -20 -18 -39 -15 -45
26 -62 51 -22 167 -21 209 1 56 29 81 106 48 153 -15 21 -64 43 -142 63 -46
12 -56 21 -47 43 9 24 54 29 109 12 28 -8 51 -15 52 -15 2 0 23 63 23 71 0 14
-64 29 -129 29 -48 0 -75 -5 -98 -20z"/>
<path d="M2490 1440 l0 -40 55 0 55 0 0 -145 0 -145 55 0 55 0 0 145 0 145 55
0 55 0 0 40 0 40 -165 0 -165 0 0 -40z"/>
<path d="M2850 1295 l0 -185 50 0 50 0 0 50 c0 49 1 50 29 50 23 0 36 -10 65
-50 35 -49 37 -50 86 -50 27 0 50 2 50 5 0 3 -15 29 -34 57 l-35 51 29 27 c76
71 39 193 -65 219 -24 6 -85 11 -134 11 l-91 0 0 -185z m210 85 c44 -44 12
-90 -62 -90 l-48 0 0 55 0 55 45 0 c32 0 51 -6 65 -20z"/>
<path d="M3285 1328 c-37 -84 -74 -168 -81 -185 l-14 -33 50 0 c49 0 52 2 66
35 l14 35 81 0 80 0 15 -35 c14 -33 17 -35 64 -35 28 0 50 3 50 8 0 4 -36 86
-79 182 l-78 175 -50 3 -50 3 -68 -153z m128 25 c3 -10 12 -35 21 -55 l16 -38
-49 0 -49 0 21 55 c23 58 31 66 40 38z"/>
<path d="M940 900 c0 -27 5 -50 10 -50 6 0 10 9 10 19 0 12 8 21 23 24 l22 4
-22 2 c-32 2 -30 31 2 31 14 0 25 5 25 10 0 6 -16 10 -35 10 l-35 0 0 -50z"/>
<path d="M1080 900 c0 -27 5 -50 10 -50 6 0 10 23 10 50 0 28 -4 50 -10 50 -5
0 -10 -22 -10 -50z"/>
<path d="M1180 900 c0 -27 5 -50 10 -50 6 0 10 14 10 30 0 17 2 30 5 30 3 0
19 -15 35 -32 l29 -33 1 53 c0 28 -4 52 -10 52 -5 0 -10 -12 -10 -27 l0 -27
-28 27 c-15 15 -31 27 -35 27 -4 0 -7 -22 -7 -50z"/>
<path d="M1350 899 l0 -52 36 6 c43 7 64 23 64 48 0 28 -28 49 -66 49 l-34 0
0 -51z m75 1 c0 -20 -6 -26 -27 -28 -25 -3 -28 0 -28 28 0 28 3 31 28 28 21
-2 27 -8 27 -28z"/>
<path d="M1626 935 c4 -11 12 -35 18 -52 13 -38 26 -43 26 -10 0 13 7 32 15
43 22 29 17 43 -5 15 l-20 -23 -21 23 c-18 21 -20 21 -13 4z"/>
<path d="M1786 934 c-23 -23 -19 -51 9 -70 37 -24 75 -6 75 35 0 46 -52 68
-84 35z m62 -31 c-3 -32 -44 -46 -54 -19 -10 26 4 46 31 46 23 0 26 -4 23 -27z"/>
<path d="M1950 910 c0 -38 18 -60 49 -60 20 0 41 33 41 66 0 46 -18 43 -22 -3
-2 -31 -7 -39 -25 -41 -21 -3 -23 1 -23 37 0 23 -4 41 -10 41 -5 0 -10 -18
-10 -40z"/>
<path d="M2120 900 c0 -27 5 -50 10 -50 6 0 10 7 10 15 0 8 6 15 14 15 8 0 16
-7 20 -15 3 -8 11 -15 17 -15 9 0 8 4 0 14 -9 11 -9 19 0 34 17 27 -3 52 -42
52 -28 0 -29 -2 -29 -50z m60 15 c0 -8 -9 -15 -20 -15 -11 0 -20 7 -20 15 0 8
9 15 20 15 11 0 20 -7 20 -15z"/>
<path d="M2370 900 c0 -27 5 -50 10 -50 6 0 10 6 10 14 0 7 14 16 30 20 23 4
30 11 30 30 0 25 -16 36 -56 36 -22 0 -24 -4 -24 -50z m60 15 c0 -8 -9 -15
-20 -15 -11 0 -20 7 -20 15 0 8 9 15 20 15 11 0 20 -7 20 -15z"/>
<path d="M2530 900 l0 -50 35 0 c19 0 35 5 35 10 0 6 -11 10 -25 10 -32 0 -34
27 -2 33 l22 4 -22 2 c-31 2 -29 21 2 21 14 0 25 5 25 10 0 6 -16 10 -35 10
l-35 0 0 -50z"/>
<path d="M2680 900 c0 -27 5 -50 10 -50 6 0 10 7 10 15 0 8 6 15 14 15 8 0 16
-7 20 -15 3 -8 10 -15 16 -15 8 0 8 6 0 20 -7 14 -7 20 0 20 16 0 12 47 -6 54
-9 3 -27 6 -40 6 -22 0 -24 -4 -24 -50z m60 15 c0 -8 -9 -15 -20 -15 -11 0
-20 7 -20 15 0 8 9 15 20 15 11 0 20 -7 20 -15z"/>
<path d="M2840 900 c0 -27 5 -50 10 -50 6 0 10 9 10 19 0 12 8 21 23 24 l22 4
-22 2 c-32 2 -30 31 2 31 14 0 25 5 25 10 0 6 -16 10 -35 10 l-35 0 0 -50z"/>
<path d="M2980 900 l0 -50 40 0 c22 0 40 5 40 10 0 6 -14 10 -31 10 -36 0 -35
21 2 31 24 7 24 7 -3 8 -38 1 -36 21 2 21 17 0 30 5 30 10 0 6 -18 10 -40 10
l-40 0 0 -50z"/>
<path d="M3146 934 c-23 -23 -20 -51 9 -70 16 -10 32 -13 47 -8 21 7 20 9 -12
14 -29 4 -35 9 -35 30 0 21 6 26 35 30 27 4 31 7 17 13 -28 11 -44 9 -61 -9z"/>
<path d="M3290 940 c0 -5 7 -10 15 -10 11 0 15 -11 15 -40 0 -22 5 -40 10 -40
6 0 10 18 10 40 0 29 4 40 15 40 8 0 15 5 15 10 0 6 -18 10 -40 10 -22 0 -40
-4 -40 -10z"/>
<path d="M3530 900 c0 -27 5 -50 10 -50 6 0 10 15 10 33 l1 32 29 -32 c16 -18
32 -33 35 -33 3 0 5 23 5 50 0 28 -4 50 -10 50 -5 0 -10 -11 -10 -25 0 -14 -3
-25 -6 -25 -3 0 -15 11 -26 25 -29 37 -38 31 -38 -25z"/>
<path d="M3700 900 l0 -50 40 0 c22 0 40 5 40 10 0 6 -13 10 -30 10 -39 0 -41
27 -2 33 l27 4 -27 2 c-35 1 -37 21 -3 21 14 0 25 5 25 10 0 6 -16 10 -35 10
l-35 0 0 -50z"/>
<path d="M3857 943 c-16 -15 -6 -41 18 -47 33 -8 32 -26 -2 -26 -20 0 -24 -3
-16 -11 7 -7 23 -9 37 -5 35 9 35 43 1 52 -31 8 -27 30 4 27 13 -2 20 1 16 7
-7 11 -48 14 -58 3z"/>
<path d="M3990 940 c0 -5 7 -10 15 -10 11 0 15 -11 15 -40 0 -22 5 -40 10 -40
6 0 10 18 10 40 0 29 4 40 15 40 8 0 15 5 15 10 0 6 -18 10 -40 10 -22 0 -40
-4 -40 -10z"/>
<path d="M2028 701 c18 -57 37 -66 47 -21 4 17 10 30 15 30 5 0 11 -13 15 -30
10 -45 29 -36 47 20 19 58 8 68 -14 13 l-14 -38 -13 38 c-15 45 -26 47 -40 5
-12 -33 -26 -30 -33 6 -1 11 -8 21 -15 23 -8 3 -7 -11 5 -46z"/>
<path d="M2240 700 c0 -27 5 -50 10 -50 6 0 10 23 10 50 0 28 -4 50 -10 50 -5
0 -10 -22 -10 -50z"/>
<path d="M2330 740 c0 -5 7 -10 15 -10 11 0 15 -11 15 -40 0 -22 5 -40 10 -40
6 0 10 18 10 40 0 33 3 40 20 40 11 0 20 5 20 10 0 6 -20 10 -45 10 -25 0 -45
-4 -45 -10z"/>
<path d="M2490 700 c0 -27 5 -50 10 -50 6 0 10 9 10 20 0 15 7 20 25 20 18 0
25 -5 25 -20 0 -11 5 -20 10 -20 6 0 10 23 10 50 0 28 -4 50 -10 50 -5 0 -10
-9 -10 -20 0 -15 -7 -20 -25 -20 -18 0 -25 5 -25 20 0 11 -4 20 -10 20 -5 0
-10 -22 -10 -50z"/>
<path d="M2750 710 c0 -38 18 -60 49 -60 20 0 41 33 41 66 0 46 -18 43 -22 -3
-2 -31 -7 -39 -25 -41 -21 -3 -23 1 -23 37 0 23 -4 41 -10 41 -5 0 -10 -18
-10 -40z"/>
<path d="M2919 734 c-11 -14 -10 -18 6 -30 10 -8 25 -14 32 -14 28 0 11 -19
-19 -22 l-33 -4 28 -8 c37 -11 68 14 47 38 -7 9 -21 16 -32 16 -11 0 -18 5
-15 13 2 6 14 11 26 10 11 -2 21 2 21 7 0 16 -46 11 -61 -6z"/>
</g>
</svg>
